<svg viewBox="-106 0 512 512.0002"  transform='rotate(30)' xmlns="http://www.w3.org/2000/svg"><path d="m255 179.863281c-24.816406 0-45-20.183593-45-45 0-8.289062 6.707031-15 15-15 8.289062 0 15 6.710938 15 15 0 8.277344 6.722656 15 15 15 8.273438 0 15-6.722656 15-15 0-27.773437-19.878906-50.929687-47.257812-55.078125l-119.851563-17.0625 4.21875-29.707031 119.96875 17.09375c42.320313 6.402344 72.921875 42.023437 72.921875 84.753906 0 24.816407-20.1875 45-45 45zm0 0" fill="#409b10"/><path d="m113.21875 66c-28.242188 0-55.886719-17.453125-75.851562-37.421875l-2.972657-2.972656c-5.859375-5.859375-5.859375-15.351563 0-21.210938 5.859375-5.859375 15.351563-5.859375 21.210938 0l2.972656 2.972657c22.824219 22.808593 60.324219 34.917968 89.195313 20.472656l40.515624-26.257813c7.382813-3.660156 16.421876-.71875 20.128907 6.710938 3.703125 7.410156.703125 16.417969-6.710938 20.125l-40.515625 26.257812c-14.839844 7.414063-31.421875 11.324219-47.972656 11.324219zm0 0" fill="#409b10"/><path d="m156.597656 100.371094-22.199218 338.695312-62.699219 72.601563c-4.5-.902344-8.398438-3.601563-10.199219-7.199219-37.199219-74.402344-61.5-139.199219-61.199219-232.5 0-4.460938-.2890622-9.210938-.300781-13.96875v-.132812c.601562-88.796876 30.898438-225.597657 103.199219-225.296876zm0 0" fill="#56c225"/><path d="m146.390625 258-11.992187 181.066406-62.699219 72.601563c-4.5-.902344-8.398438-3.601563-10.199219-7.199219-37.199219-74.402344-61.5-139.199219-61.199219-232.5 0-4.460938-.2890622-9.210938-.300781-13.96875zm0 0" fill="#49a520"/><path d="m105 167.867188c-16.539062 0-30-13.460938-30-30 0-16.539063 13.460938-30 30-30s30 13.460937 30 30c0 16.539062-13.460938 30-30 30zm0 0" fill="#b9dd39"/><path d="m105 257.867188c-24.8125 0-45-20.1875-45-45s20.1875-45 45-45 45 20.1875 45 45-20.1875 45-45 45zm0 0" fill="#b9dd39"/><path d="m105 347.867188c-24.8125 0-45-20.1875-45-45 0-24.816407 20.1875-45 45-45s45 20.183593 45 45c0 24.8125-20.1875 45-45 45zm0 0" fill="#a8d32a"/><path d="m105 407.867188c-16.539062 0-30-13.464844-30-30 0-16.539063 13.460938-30 30-30s30 13.460937 30 30c0 16.535156-13.460938 30-30 30zm0 0" fill="#a8d32a"/><path d="m210 257.867188v.132812c-.019531 52.148438-9.320312 99.199219-29.402344 140.867188-33.636718 70.289062-87.226562 102.910156-94.796875 109.800781-4.5 3-9.601562 3.898437-14.101562 3 41.980469-92.648438 58.78125-179 62.089843-253.667969.011719-.042969.011719-.089844.011719-.132812 4.5-105.597657-17.402343-186.597657-30.601562-225.296876 5.699219 0 11.398437.898438 17.699219 2.699219 67.800781 20.699219 89.101562 150.898438 89.101562 222.597657zm0 0" fill="#70da40"/><path d="m210 258c-.019531 52.148438-9.320312 99.199219-29.402344 140.867188-33.636718 70.289062-87.226562 102.910156-94.796875 109.800781-4.5 3-9.601562 3.898437-14.101562 3 41.980469-92.648438 58.78125-179 62.089843-253.667969zm0 0" fill="#56c225"/></svg>